<svg xmlns="http://www.w3.org/2000/svg" viewBox="0 0 1440 270">
  <path fill="#311b92" fill-opacity="1" d="M0,96L26.7,101.3C53.3,107,107,117,160,128C213.3,139,267,149,320,133.3C373.3,117,427,75,480,64C533.3,53,587,75,640,117.3C693.3,160,747,224,800,229.3C853.3,235,907,181,960,181.3C1013.3,181,1067,235,1120,256C1173.3,277,1227,267,1280,229.3C1333.3,192,1387,128,1413,96L1440,64L1440,0L1413.3,0C1386.7,0,1333,0,1280,0C1226.7,0,1173,0,1120,0C1066.7,0,1013,0,960,0C906.7,0,853,0,800,0C746.7,0,693,0,640,0C586.7,0,533,0,480,0C426.7,0,373,0,320,0C266.7,0,213,0,160,0C106.7,0,53,0,27,0L0,0Z"></path>
</svg>